<?xml version="1.0" encoding="UTF-8"?>
<svg xmlns="http://www.w3.org/2000/svg" version="1.1" xmlns:xlink="http://www.w3.org/1999/xlink" viewBox="0 0 500 500">
  <defs>
    <style>
      .cls-1 {
        fill: #f4ece4;
      }

      .cls-2 {
        fill: #fff;
      }

      .cls-3 {
        fill: none;
      }

      .cls-4 {
        fill: url(#New_Pattern_Swatch_15);
      }

      .cls-5 {
        fill: #7990b6;
      }

      .cls-6 {
        fill: #3b527c;
      }

      .cls-7 {
        fill: #72ac9b;
      }

      .cls-8 {
        fill: #322a28;
      }

      .cls-9 {
        fill: #e46233;
      }

      .cls-10 {
        fill: #eadcd0;
      }

      .cls-11 {
        fill: #0b1e3e;
      }
    </style>
    <pattern id="New_Pattern_Swatch_15" data-name="New Pattern Swatch 15" x="0" y="0" width="490" height="550" patternTransform="translate(-3529.6 -3668.95) scale(.57)" patternUnits="userSpaceOnUse" viewBox="0 0 490 550">
      <g>
        <rect class="cls-3" y="0" width="490" height="550"/>
        <path class="cls-7" d="M63.3,581.18c14.09,26.46,43.67,43.89,73.64,43.39,29.97-.5,58.96-18.9,72.17-45.81,3.76-7.66,6.06-17.55.7-24.2-6.54-8.12-19.31-5.76-29.17-2.37-9.86,3.39-22.17,6.59-29.59-.74-13.77-13.59,8.98-41.68-5.11-54.93-7.97-7.5-20.89-3.07-30.66,1.86-5.74,2.9-14.12,7.38-20.83,6.24-13.52-2.31-4.79-8.49-11.74-14.46-7.25-6.23-9.3-2.11-15.37,6.88-16.4,24.3-17.69,58.45-4.05,84.13Z"/>
        <g>
          <path class="cls-11" d="M468.8,345.45c5.1,14.7,18.96,25.05,33.83,29.61s30.78,4.15,46.29,3.04c15.24-1.09,30.56-2.83,45.09-7.52,14.54-4.69,28.36-12.53,38.21-24.22,10.84-12.88,16.2-29.58,18.68-46.23,2.46-16.52,2.3-33.67-2.67-49.61-7.98-25.58-27.39-45.72-46.16-64.84-10.92-11.12-23.04-22.87-38.49-24.96-17.11-2.32-34.01,8.49-43.29,23.05-9.29,14.56-12.26,32.22-13.6,49.44-.96,12.31-1.19,24.77-4.15,36.76-3.67,14.85-12.24,24.67-22.19,35.57-9.98,10.93-16.7,25.03-11.55,39.89Z"/>
          <path class="cls-2" d="M575.87,85.04c3.01-4.93,4.1-11.26,1.87-16.6-2.23-5.33-8.16-9.17-13.84-8.07,5.22-2.74,10.57-5.6,14.37-10.11,3.8-4.51,5.7-11.13,3.08-16.41-6.43-12.96-28.11-8.83-34.84,1.94.14-13.34-16.49-28.03-28.28-17.48-5.96,5.34-6.91,15.39-2.04,21.75-3.47-4.23-9.74-5.42-14.99-3.91-5.25,1.52-9.58,5.32-12.95,9.63-2.97,3.79-5.39,8.23-5.7,13.03-.32,4.8,1.87,9.98,6.17,12.16,2.35,1.19,5.06,1.4,7.7,1.44,8.41.12,16.85-1.33,24.73-4.25-4.99,5.28-3.86,15.15,2.4,18.83,6.26,3.68,15.73-.54,16.8-7.73.23,8.03,7.25,15.04,15.21,16.07,7.96,1.03,16.13-3.45,20.32-10.31Z"/>
        </g>
        <g>
          <path class="cls-10" d="M172.68,440.5c24.95-8.3,43.78-29.38,56.54-52.38,17.46-31.47,25.62-68.03,23.2-103.94-1.24-18.36-5.17-36.78-2.66-55.02,5.18-37.67,36.05-66.06,52.06-100.54,8.33-17.95,11.99-40.8-.25-56.35-10.02-12.73-27.48-16.56-43.59-18.34-42.56-4.71-86.03-1-127.18,10.86-20.22,5.83-41.03,14.47-53.23,31.61-10.83,15.23-13.16,34.72-15.15,53.3-5.29,49.27-10.57,98.54-15.86,147.8-3.54,32.97-11.31,82.5,16.92,107.15,29.68,25.92,68.65,49.34,109.21,35.84Z"/>
          <path class="cls-11" d="M-21.2,345.45c5.1,14.7,18.96,25.05,33.83,29.61s30.78,4.15,46.29,3.04c15.24-1.09,30.56-2.83,45.09-7.52,14.54-4.69,28.36-12.53,38.21-24.22,10.84-12.88,16.2-29.58,18.68-46.23,2.46-16.52,2.3-33.67-2.67-49.61-7.98-25.58-27.39-45.72-46.16-64.84-10.92-11.12-23.04-22.87-38.49-24.96-17.11-2.32-34.01,8.49-43.29,23.05-9.29,14.56-12.26,32.22-13.6,49.44-.96,12.31-1.19,24.77-4.15,36.76-3.67,14.85-12.24,24.67-22.19,35.57-9.98,10.93-16.7,25.03-11.55,39.89Z"/>
          <path class="cls-7" d="M63.3,31.18c14.09,26.46,43.67,43.89,73.64,43.39,29.97-.5,58.96-18.9,72.17-45.81,3.76-7.66,6.06-17.55.7-24.2-6.54-8.12-19.31-5.76-29.17-2.37-9.86,3.39-22.17,6.59-29.59-.74-13.77-13.59,8.98-41.68-5.11-54.93-7.97-7.5-20.89-3.07-30.66,1.86-5.74,2.9-14.12,7.38-20.83,6.24-13.52-2.31-4.79-8.49-11.74-14.46-7.25-6.23-9.3-2.11-15.37,6.88-16.4,24.3-17.69,58.45-4.05,84.13Z"/>
          <path class="cls-10" d="M337.72,360.49c0,35.02,13.29,70.48,38.67,94.62,24.41,23.22,60.58,34.87,93.12,26.14,21.79-5.85,42.52-23.37,43.44-45.91.55-13.41-6.16-26.54-16.24-35.4-10.07-8.87-23.2-13.77-36.49-15.63-11.82-1.65-24.71-1.31-34.43-8.24-8.83-6.3-13.04-17.55-13.43-28.4s2.53-21.5,5.42-31.95c5.66-20.48,11.31-40.96,16.97-61.44,2.45-8.88,4.84-18.7.82-26.99-4.17-8.61-14.66-12.99-24.15-11.79-26.16,3.33-38.13,35.51-47.99,56.25-13.7,28.81-25.7,56.13-25.71,88.74Z"/>
          <g>
            <path class="cls-8" d="M263.53,432.55c0,8.69,13.51,8.71,13.51,0s-13.51-8.71-13.51,0Z"/>
            <path class="cls-8" d="M227.75,461.9c0,4.39,6.82,4.4,6.82,0s-6.82-4.4-6.82,0Z"/>
            <path class="cls-8" d="M272.24,472.9c0,3.79,5.88,3.79,5.88,0s-5.88-3.79-5.88,0Z"/>
            <path class="cls-8" d="M187.92,383.64c0,8.43,13.11,8.45,13.11,0s-13.11-8.45-13.11,0Z"/>
            <path class="cls-8" d="M265.46,368.65c-.71.42-1.27.98-1.69,1.69-.37.53-.61.94-.8,1.65-.3,1.08-.18,2.12.11,3.18.17.39.33.79.5,1.18.31.58.74,1.04,1.27,1.39.31.31.67.52,1.09.64.59.31,1.23.45,1.91.43.44-.06.88-.12,1.32-.18.39-.17.79-.33,1.18-.5.58-.31,1.04-.74,1.39-1.27.44-.48.73-1.04.89-1.68.29-1.05.41-2.09.11-3.18-.19-.71-.43-1.12-.8-1.65-.42-.71-.98-1.27-1.69-1.69-.74-.43-1.53-.64-2.38-.64-.85,0-1.65.22-2.38.64Z"/>
            <path class="cls-8" d="M226.03,419.1c0,8.18,12.71,8.19,12.71,0s-12.71-8.19-12.71,0Z"/>
            <path class="cls-8" d="M231.39,387.31c0,7.57,11.77,7.59,11.77,0s-11.77-7.59-11.77,0Z"/>
            <path class="cls-8" d="M285.96,399.53c0,3.44,5.35,3.45,5.35,0s-5.35-3.45-5.35,0Z"/>
            <path class="cls-8" d="M224.34,361.63c0,8.78,13.64,8.79,13.64,0s-13.64-8.79-13.64,0Z"/>
            <path class="cls-8" d="M204,422.77c0,6.63,10.3,6.64,10.3,0s-10.3-6.64-10.3,0Z"/>
          </g>
          <g>
            <path class="cls-8" d="M457.84,219.31c0,6.2,9.63,6.21,9.63,0s-9.63-6.21-9.63,0Z"/>
            <path class="cls-8" d="M432.32,240.24c0,3.13,4.86,3.14,4.86,0s-4.86-3.13-4.86,0Z"/>
            <path class="cls-8" d="M464.05,248.09c0,2.7,4.2,2.7,4.2,0s-4.2-2.7-4.2,0Z"/>
            <path class="cls-8" d="M403.92,184.43c0,6.01,9.35,6.02,9.35,0s-9.35-6.02-9.35,0Z"/>
            <path class="cls-8" d="M459.21,173.74c-.51.3-.91.7-1.21,1.21-.26.37-.43.67-.57,1.18-.21.77-.13,1.51.08,2.27.12.28.24.56.36.84.22.41.52.74.91.99.22.22.48.37.78.45.42.22.87.32,1.36.3.31-.04.63-.08.94-.13.28-.12.56-.24.84-.36.41-.22.74-.52.99-.91.31-.34.52-.74.63-1.2.21-.75.29-1.49.08-2.27-.14-.5-.31-.8-.57-1.18-.3-.51-.7-.91-1.21-1.21-.53-.3-1.09-.46-1.7-.46-.61,0-1.17.16-1.7.46Z"/>
            <path class="cls-8" d="M431.1,209.72c0,5.83,9.06,5.84,9.06,0s-9.06-5.84-9.06,0Z"/>
            <path class="cls-8" d="M434.92,187.05c0,5.4,8.39,5.41,8.39,0s-8.39-5.41-8.39,0Z"/>
            <path class="cls-8" d="M473.83,195.77c0,2.45,3.81,2.46,3.81,0s-3.81-2.46-3.81,0Z"/>
            <path class="cls-8" d="M429.89,168.74c0,6.26,9.73,6.27,9.73,0s-9.73-6.27-9.73,0Z"/>
            <path class="cls-8" d="M415.39,212.34c0,4.73,7.34,4.73,7.34,0s-7.34-4.73-7.34,0Z"/>
          </g>
          <path class="cls-7" d="M463.22,146.75c1.84,11.07,11.23,20.47,22.31,22.32s23.01-4.01,28.33-13.89c2.95-5.47,3.94-12,2.59-18.07-1.39-6.24-5.06-11.68-8.67-16.96-8.16-11.96-18.24-9.39-29.71-3.21-10.15,5.47-16.73,18.45-14.85,29.81Z"/>
          <path class="cls-5" d="M307.94,381.97c1.31,7.88,8,14.57,15.88,15.88,7.88,1.31,16.37-2.85,20.16-9.88,2.1-3.89,2.8-8.54,1.84-12.86-.99-4.44-3.6-8.31-6.17-12.07-5.81-8.51-12.98-6.68-21.15-2.29-7.23,3.89-11.91,13.13-10.57,21.22Z"/>
          <path class="cls-6" d="M187.17,133.2c-10.38,2.44-21.71,6.02-27.11,15.22-5.18,8.8-3.11,20.4,2.44,28.97,5.54,8.57,14,14.77,22.26,20.77,52.11,37.84,104.23,75.68,156.34,113.52,17.64,12.81,39.57,26.26,59.8,18.13,13.05-5.24,21.41-18.61,24.38-32.36,2.96-13.74,1.39-28.01-.2-41.98-3.64-32.01-3.84-67.1-11.22-98.43-5.97-25.37-38.86-25.76-61.11-29.4-54.72-8.95-111.61-7.38-165.58,5.55Z"/>
          <path class="cls-9" d="M301.83,597.7c15.52,10.97,34.92,16.33,53.87,14.87,23.02-1.77,44.43-13.23,62.08-28.11,12.34-10.4,23.43-22.94,28.98-38.09,5.53-15.07,5.2-31.85,1.36-47.43-3.83-15.59-11.01-30.15-18.96-44.1-5.45-9.56-11.66-19.27-21.14-24.86-9.48-5.59-23.11-5.65-30.27,2.71-4.81,5.62-5.72,13.66-4.82,21,.9,7.34,3.35,14.41,4.44,21.72,1.35,9.04-1.12,20.58-9.96,22.91-8.15,2.15-15.52-5.02-20.91-11.49-5.39-6.48-12.75-13.65-20.9-11.53-6.83,1.78-10.45,9.76-9.89,16.8.55,7.04,4.17,13.41,7.35,19.72,3.18,6.31,6.06,13.25,4.99,20.23-1.07,6.98-7.62,13.55-14.54,12.11-6.81-1.42-10.1-9.07-15.55-13.39-6.4-5.08-16.37-4.96-22.64.29-21.4,17.9,11.81,56.28,26.48,66.66Z"/>
          <path class="cls-6" d="M351.99,524.25c-12.75-15.43-32.32-19.75-51.36-21.18-11.65-.88-23.36-.87-34.97-2.19-15.16-1.72-28.26-8.31-42.22-13.96-12.16-4.92-26.27-8.81-39.39-5.57-11.04,2.73-18.86,11.17-25.81,19.65-.06.07-.1.15-.15.22-4.27,4.2-6.78,10.93-8.62,16.05-2.94,8.22-5.46,17.9-4.33,26.69,1.32,10.23,10.52,14.26,18.87,18.09,11.67,5.35,20.88,13.94,27.61,24.79,5.3,8.54,9.91,17.97,17.49,24.8,7.52,6.78,17.48,9.87,27.55,8.87,21.02-2.1,31.03-22.87,49.71-29.64,13.37-4.84,28.37-4.88,42.3-7.12,11.66-1.87,26.52-4.64,33.51-15.32,8.93-13.64-1.28-33.38-10.2-44.18ZM359.35,559.34c-1.77,11.63-15.48,15.3-25.22,17.34-13.17,2.77-26.69,3.33-39.89,5.93-5.62,1.11-11.08,2.69-16.1,5.52-8.37,4.73-15.03,11.72-22.54,17.6-8.16,6.39-17.52,10.29-28.04,8.52-9.92-1.67-16.85-8.43-22.23-16.5-6.15-9.23-10.85-19.33-18.77-27.28-4.44-4.45-9.64-8.32-15.11-11.4-4.41-2.49-9.32-4.01-13.64-6.68-9.49-5.88-7.22-16.69-4.85-25.98,3.78-14.83,16.02-34.53,31.58-38.99,10.7-3.06,22.6-.19,32.75,3.52,11.47,4.19,22.25,10.17,34.08,13.39,9.48,2.58,19.47,3.18,29.24,3.68,17.96.92,37.73.37,53.91,9.42,8.56,4.79,15.01,12.13,19.5,20.79,3.23,6.23,6.4,13.92,5.31,21.11Z"/>
          <path class="cls-7" d="M539.54,308.3c-1.52,15.98-4.71,31.8-9.49,47.12-.45.01-1.24.09-.47-.14-15.25-13-33-25.58-49.26-37.31,4.57,19.67,4.54,37.83,5.77,57.98-13.85-7.63-29.25-13.52-44.27-18.43,14.51,27.95,30.55,55.12,48.01,81.33,27.72-13.43,58.17-25.86,86.62-37.65l-36.91-92.91Z"/>
          <path class="cls-11" d="M346.36,70.84c-1.63,4.38-3.24,9.11-2.07,13.63,1.54,5.96,7.35,9.68,12.82,12.5,11.21,5.77,23.05,10.31,35.24,13.51,1.97.52,4.04,1,6.04.6,2.62-.53,4.7-2.47,6.55-4.4,15.52-16.09,26.49-36.53,31.3-58.36.38-1.72.72-3.53.26-5.23-.47-1.72-1.69-3.12-2.94-4.4-13.54-13.95-37.47-23.7-57.05-18.87-18.49,4.56-24.2,35.08-30.16,51.03Z"/>
          <path class="cls-2" d="M85.87,85.04c3.01-4.93,4.1-11.26,1.87-16.6-2.23-5.33-8.16-9.17-13.84-8.07,5.22-2.74,10.57-5.6,14.37-10.11,3.8-4.51,5.7-11.13,3.08-16.41-6.43-12.96-28.11-8.83-34.84,1.94.14-13.34-16.49-28.03-28.28-17.48-5.96,5.34-6.91,15.39-2.04,21.75-3.47-4.23-9.74-5.42-14.99-3.91-5.25,1.52-9.58,5.32-12.95,9.63-2.97,3.79-5.39,8.23-5.7,13.03-.32,4.8,1.87,9.98,6.17,12.16,2.35,1.19,5.06,1.4,7.7,1.44,8.41.12,16.85-1.33,24.73-4.25-4.99,5.28-3.86,15.15,2.4,18.83,6.26,3.68,15.73-.54,16.8-7.73.23,8.03,7.25,15.04,15.21,16.07,7.96,1.03,16.13-3.45,20.32-10.31Z"/>
          <path class="cls-9" d="M331.16,171.01c-.49-1.46-2.09-2.65-3.69-2.1-48.57,16.78-81.75,59.98-129.2,78.81-2.72,1.08-2.44,4.73-.54,5.74.09.12.17.23.29.34,14.5,14.15,33.47,22.63,50.2,33.7,19.47,12.89,39.4,25.34,56.86,40.94,1.71,1.53,4.3.89,5.01-1.32,4.08-12.71,3.28-26.73,5.39-39.84,2.43-15.1,5.76-30.02,8.78-45,2.64-13.11,5.1-26.29,7.04-39.52,1.51-10.25,3.21-21.68-.14-31.75ZM324.85,205.42c-2.12,13.1-4.51,26.16-7.17,39.16-2.92,14.29-6.03,28.54-8.29,42.96-1.71,10.95-1.35,22.55-3.84,33.39-16.03-13.66-33.83-24.94-51.33-36.61-16.36-10.91-35.17-19.38-49.79-32.72,44.14-19.3,76.42-59.02,121.78-75.86,2.12,9.56.15,20.29-1.37,29.67Z"/>
        </g>
        <g>
          <path class="cls-10" d="M-152.28,360.49c0,35.02,13.29,70.48,38.67,94.62,24.41,23.22,60.58,34.87,93.12,26.14,21.79-5.85,42.52-23.37,43.44-45.91.55-13.41-6.16-26.54-16.24-35.4-10.07-8.87-23.2-13.77-36.49-15.63-11.82-1.65-24.71-1.31-34.43-8.24-8.83-6.3-13.04-17.55-13.43-28.4s2.53-21.5,5.42-31.95c5.66-20.48,11.31-40.96,16.97-61.44,2.45-8.88,4.84-18.7.82-26.99-4.17-8.61-14.66-12.99-24.15-11.79-26.16,3.33-38.13,35.51-47.99,56.25-13.7,28.81-25.7,56.13-25.71,88.74Z"/>
          <path class="cls-7" d="M-26.78,146.75c1.84,11.07,11.23,20.47,22.31,22.32s23.01-4.01,28.33-13.89c2.95-5.47,3.94-12,2.59-18.07-1.39-6.24-5.06-11.68-8.67-16.96-8.16-11.96-18.24-9.39-29.71-3.21-10.15,5.47-16.73,18.45-14.85,29.81Z"/>
          <path class="cls-7" d="M49.54,308.3c-1.52,15.98-4.71,31.8-9.49,47.12-.45.01-1.24.09-.47-.14-15.25-13-33-25.58-49.26-37.31,4.57,19.67,4.54,37.83,5.77,57.98-13.85-7.63-29.25-13.52-44.27-18.43,14.51,27.95,30.55,55.12,48.01,81.33,27.72-13.43,58.17-25.86,86.62-37.65l-36.91-92.91Z"/>
        </g>
        <g>
          <path class="cls-9" d="M301.83,47.7c15.52,10.97,34.92,16.33,53.87,14.87,23.02-1.77,44.43-13.23,62.08-28.11,12.34-10.4,23.43-22.94,28.98-38.09,5.53-15.07,5.2-31.85,1.36-47.43-3.83-15.59-11.01-30.15-18.96-44.1-5.45-9.56-11.66-19.27-21.14-24.86-9.48-5.59-23.11-5.65-30.27,2.71-4.81,5.62-5.72,13.66-4.82,21,.9,7.34,3.35,14.41,4.44,21.72,1.35,9.04-1.12,20.58-9.96,22.91-8.15,2.15-15.52-5.02-20.91-11.49-5.39-6.48-12.75-13.65-20.9-11.53-6.83,1.78-10.45,9.76-9.89,16.8.55,7.04,4.17,13.41,7.35,19.72,3.18,6.31,6.06,13.25,4.99,20.23-1.07,6.98-7.62,13.55-14.54,12.11-6.81-1.42-10.1-9.07-15.55-13.39-6.4-5.08-16.37-4.96-22.64.29-21.4,17.9,11.81,56.28,26.48,66.66Z"/>
          <path class="cls-6" d="M351.99-25.75c-12.75-15.43-32.32-19.75-51.36-21.18-11.65-.88-23.36-.87-34.97-2.19-15.16-1.72-28.26-8.31-42.22-13.96-12.16-4.92-26.27-8.81-39.39-5.57-11.04,2.73-18.86,11.17-25.81,19.65-.06.07-.1.15-.15.22-4.27,4.2-6.78,10.93-8.62,16.05-2.94,8.22-5.46,17.9-4.33,26.69,1.32,10.23,10.52,14.26,18.87,18.09,11.67,5.35,20.88,13.94,27.61,24.79,5.3,8.54,9.91,17.97,17.49,24.8,7.52,6.78,17.48,9.87,27.55,8.87,21.02-2.1,31.03-22.87,49.71-29.64,13.37-4.84,28.37-4.88,42.3-7.12,11.66-1.87,26.52-4.64,33.51-15.32,8.93-13.64-1.28-33.38-10.2-44.18ZM359.35,9.34c-1.77,11.63-15.48,15.3-25.22,17.34-13.17,2.77-26.69,3.33-39.89,5.93-5.62,1.11-11.08,2.69-16.1,5.52-8.37,4.73-15.03,11.72-22.54,17.6-8.16,6.39-17.52,10.29-28.04,8.52-9.92-1.67-16.85-8.43-22.23-16.5-6.15-9.23-10.85-19.33-18.77-27.28-4.44-4.45-9.64-8.32-15.11-11.4-4.41-2.49-9.32-4.01-13.64-6.68-9.49-5.87-7.22-16.69-4.85-25.98,3.78-14.83,16.02-34.53,31.58-38.99,10.7-3.06,22.6-.19,32.75,3.52,11.47,4.19,22.25,10.17,34.08,13.39,9.48,2.58,19.47,3.18,29.24,3.68,17.96.92,37.73.37,53.91,9.42,8.56,4.79,15.01,12.13,19.5,20.79,3.23,6.23,6.4,13.92,5.31,21.11Z"/>
        </g>
      </g>
    </pattern>
  </defs>
  <!-- Generator: Adobe Illustrator 28.6.0, SVG Export Plug-In . SVG Version: 1.2.0 Build 709)  -->
  <g>
    <g id="PATTERN">
      <g>
        <rect class="cls-1" width="500" height="500"/>
        <rect class="cls-4" width="500" height="500"/>
      </g>
    </g>
  </g>
</svg>